<mxfile host="app.diagrams.net" modified="2023-05-02T23:36:38.645Z" agent="Mozilla/5.0 (Windows NT 10.0; Win64; x64) AppleWebKit/537.36 (KHTML, like Gecko) Chrome/112.0.0.0 Safari/537.36" etag="vR_uN9lETSkK7xCGyhGe" version="21.2.4" type="device">
  <diagram name="Page-1" id="_xwaJTRpMbaUmi0i6WAI">
    <mxGraphModel dx="1229" dy="505" grid="1" gridSize="10" guides="1" tooltips="1" connect="1" arrows="1" fold="1" page="1" pageScale="1" pageWidth="850" pageHeight="1100" math="0" shadow="0">
      <root>
        <mxCell id="0" />
        <mxCell id="1" parent="0" />
        <mxCell id="4VdPuWEmfIqCGyZleYvN-11" style="rounded=0;orthogonalLoop=1;jettySize=auto;html=1;exitX=0.5;exitY=1;exitDx=0;exitDy=0;entryX=0.5;entryY=0;entryDx=0;entryDy=0;" parent="1" source="4VdPuWEmfIqCGyZleYvN-1" target="4VdPuWEmfIqCGyZleYvN-2" edge="1">
          <mxGeometry relative="1" as="geometry" />
        </mxCell>
        <mxCell id="4VdPuWEmfIqCGyZleYvN-12" style="rounded=0;orthogonalLoop=1;jettySize=auto;html=1;exitX=0.5;exitY=1;exitDx=0;exitDy=0;entryX=0.5;entryY=0;entryDx=0;entryDy=0;" parent="1" source="4VdPuWEmfIqCGyZleYvN-1" target="4VdPuWEmfIqCGyZleYvN-3" edge="1">
          <mxGeometry relative="1" as="geometry" />
        </mxCell>
        <mxCell id="95rR9kIcngpdiVUw07pA-1" style="rounded=0;orthogonalLoop=1;jettySize=auto;html=1;exitX=0.5;exitY=1;exitDx=0;exitDy=0;entryX=0.5;entryY=0;entryDx=0;entryDy=0;" parent="1" source="4VdPuWEmfIqCGyZleYvN-1" target="4VdPuWEmfIqCGyZleYvN-5" edge="1">
          <mxGeometry relative="1" as="geometry" />
        </mxCell>
        <mxCell id="4VdPuWEmfIqCGyZleYvN-1" value="assign" style="ellipse;whiteSpace=wrap;html=1;" parent="1" vertex="1">
          <mxGeometry x="360" width="120" height="80" as="geometry" />
        </mxCell>
        <mxCell id="4VdPuWEmfIqCGyZleYvN-13" style="rounded=0;orthogonalLoop=1;jettySize=auto;html=1;exitX=0.5;exitY=1;exitDx=0;exitDy=0;entryX=0.5;entryY=0;entryDx=0;entryDy=0;" parent="1" source="4VdPuWEmfIqCGyZleYvN-2" target="4VdPuWEmfIqCGyZleYvN-6" edge="1">
          <mxGeometry relative="1" as="geometry" />
        </mxCell>
        <mxCell id="4VdPuWEmfIqCGyZleYvN-2" value="id" style="ellipse;whiteSpace=wrap;html=1;" parent="1" vertex="1">
          <mxGeometry x="240" y="120" width="120" height="80" as="geometry" />
        </mxCell>
        <mxCell id="4VdPuWEmfIqCGyZleYvN-14" style="rounded=0;orthogonalLoop=1;jettySize=auto;html=1;exitX=0.5;exitY=1;exitDx=0;exitDy=0;entryX=0.5;entryY=0;entryDx=0;entryDy=0;" parent="1" source="4VdPuWEmfIqCGyZleYvN-3" target="4VdPuWEmfIqCGyZleYvN-8" edge="1">
          <mxGeometry relative="1" as="geometry" />
        </mxCell>
        <mxCell id="4VdPuWEmfIqCGyZleYvN-15" style="rounded=0;orthogonalLoop=1;jettySize=auto;html=1;exitX=0.5;exitY=1;exitDx=0;exitDy=0;entryX=0.5;entryY=0;entryDx=0;entryDy=0;" parent="1" source="4VdPuWEmfIqCGyZleYvN-3" target="4VdPuWEmfIqCGyZleYvN-9" edge="1">
          <mxGeometry relative="1" as="geometry" />
        </mxCell>
        <mxCell id="95rR9kIcngpdiVUw07pA-2" style="rounded=0;orthogonalLoop=1;jettySize=auto;html=1;exitX=0.5;exitY=1;exitDx=0;exitDy=0;entryX=0.5;entryY=0;entryDx=0;entryDy=0;" parent="1" source="4VdPuWEmfIqCGyZleYvN-3" target="4VdPuWEmfIqCGyZleYvN-10" edge="1">
          <mxGeometry relative="1" as="geometry" />
        </mxCell>
        <mxCell id="4VdPuWEmfIqCGyZleYvN-3" value="expr" style="ellipse;whiteSpace=wrap;html=1;" parent="1" vertex="1">
          <mxGeometry x="480" y="120" width="120" height="80" as="geometry" />
        </mxCell>
        <mxCell id="4VdPuWEmfIqCGyZleYvN-5" value="=" style="text;html=1;strokeColor=none;fillColor=none;align=center;verticalAlign=middle;whiteSpace=wrap;rounded=0;" parent="1" vertex="1">
          <mxGeometry x="390" y="145" width="60" height="30" as="geometry" />
        </mxCell>
        <mxCell id="4VdPuWEmfIqCGyZleYvN-6" value="B" style="ellipse;whiteSpace=wrap;html=1;" parent="1" vertex="1">
          <mxGeometry x="240" y="240" width="120" height="80" as="geometry" />
        </mxCell>
        <mxCell id="4VdPuWEmfIqCGyZleYvN-22" style="edgeStyle=orthogonalEdgeStyle;rounded=0;orthogonalLoop=1;jettySize=auto;html=1;exitX=0.5;exitY=1;exitDx=0;exitDy=0;entryX=0.5;entryY=0;entryDx=0;entryDy=0;" parent="1" source="4VdPuWEmfIqCGyZleYvN-8" target="4VdPuWEmfIqCGyZleYvN-16" edge="1">
          <mxGeometry relative="1" as="geometry" />
        </mxCell>
        <mxCell id="4VdPuWEmfIqCGyZleYvN-8" value="expr" style="ellipse;whiteSpace=wrap;html=1;" parent="1" vertex="1">
          <mxGeometry x="480" y="240" width="120" height="80" as="geometry" />
        </mxCell>
        <mxCell id="4VdPuWEmfIqCGyZleYvN-9" value="term" style="ellipse;whiteSpace=wrap;html=1;" parent="1" vertex="1">
          <mxGeometry x="720" y="240" width="120" height="80" as="geometry" />
        </mxCell>
        <mxCell id="4VdPuWEmfIqCGyZleYvN-10" value="*" style="text;html=1;strokeColor=none;fillColor=none;align=center;verticalAlign=middle;whiteSpace=wrap;rounded=0;" parent="1" vertex="1">
          <mxGeometry x="630" y="265" width="60" height="30" as="geometry" />
        </mxCell>
        <mxCell id="4VdPuWEmfIqCGyZleYvN-23" style="edgeStyle=orthogonalEdgeStyle;rounded=0;orthogonalLoop=1;jettySize=auto;html=1;exitX=0.5;exitY=1;exitDx=0;exitDy=0;entryX=0.5;entryY=0;entryDx=0;entryDy=0;" parent="1" source="4VdPuWEmfIqCGyZleYvN-16" target="4VdPuWEmfIqCGyZleYvN-17" edge="1">
          <mxGeometry relative="1" as="geometry" />
        </mxCell>
        <mxCell id="4VdPuWEmfIqCGyZleYvN-16" value="term" style="ellipse;whiteSpace=wrap;html=1;" parent="1" vertex="1">
          <mxGeometry x="480" y="360" width="120" height="80" as="geometry" />
        </mxCell>
        <mxCell id="4VdPuWEmfIqCGyZleYvN-24" style="edgeStyle=orthogonalEdgeStyle;rounded=0;orthogonalLoop=1;jettySize=auto;html=1;exitX=0.5;exitY=1;exitDx=0;exitDy=0;entryX=0.5;entryY=0;entryDx=0;entryDy=0;" parent="1" source="4VdPuWEmfIqCGyZleYvN-17" target="4VdPuWEmfIqCGyZleYvN-18" edge="1">
          <mxGeometry relative="1" as="geometry" />
        </mxCell>
        <mxCell id="olXgmp2s7FZ5OCbK55xR-3" style="rounded=0;orthogonalLoop=1;jettySize=auto;html=1;exitX=0.5;exitY=1;exitDx=0;exitDy=0;" edge="1" parent="1" source="4VdPuWEmfIqCGyZleYvN-17" target="4VdPuWEmfIqCGyZleYvN-20">
          <mxGeometry relative="1" as="geometry" />
        </mxCell>
        <mxCell id="olXgmp2s7FZ5OCbK55xR-4" style="rounded=0;orthogonalLoop=1;jettySize=auto;html=1;exitX=0.5;exitY=1;exitDx=0;exitDy=0;" edge="1" parent="1" source="4VdPuWEmfIqCGyZleYvN-17" target="4VdPuWEmfIqCGyZleYvN-21">
          <mxGeometry relative="1" as="geometry" />
        </mxCell>
        <mxCell id="4VdPuWEmfIqCGyZleYvN-17" value="factor" style="ellipse;whiteSpace=wrap;html=1;" parent="1" vertex="1">
          <mxGeometry x="480" y="480" width="120" height="80" as="geometry" />
        </mxCell>
        <mxCell id="4VdPuWEmfIqCGyZleYvN-44" style="edgeStyle=orthogonalEdgeStyle;rounded=0;orthogonalLoop=1;jettySize=auto;html=1;exitX=0.5;exitY=1;exitDx=0;exitDy=0;entryX=0.5;entryY=0;entryDx=0;entryDy=0;" parent="1" source="4VdPuWEmfIqCGyZleYvN-18" target="4VdPuWEmfIqCGyZleYvN-25" edge="1">
          <mxGeometry relative="1" as="geometry" />
        </mxCell>
        <mxCell id="4VdPuWEmfIqCGyZleYvN-18" value="expr" style="ellipse;whiteSpace=wrap;html=1;" parent="1" vertex="1">
          <mxGeometry x="480" y="600" width="120" height="80" as="geometry" />
        </mxCell>
        <mxCell id="4VdPuWEmfIqCGyZleYvN-20" value="(" style="text;html=1;strokeColor=none;fillColor=none;align=center;verticalAlign=middle;whiteSpace=wrap;rounded=0;" parent="1" vertex="1">
          <mxGeometry x="420" y="625" width="60" height="30" as="geometry" />
        </mxCell>
        <mxCell id="4VdPuWEmfIqCGyZleYvN-21" value=")" style="text;html=1;strokeColor=none;fillColor=none;align=center;verticalAlign=middle;whiteSpace=wrap;rounded=0;" parent="1" vertex="1">
          <mxGeometry x="600" y="625" width="60" height="30" as="geometry" />
        </mxCell>
        <mxCell id="4VdPuWEmfIqCGyZleYvN-45" style="rounded=0;orthogonalLoop=1;jettySize=auto;html=1;exitX=0.5;exitY=1;exitDx=0;exitDy=0;" parent="1" source="4VdPuWEmfIqCGyZleYvN-25" target="4VdPuWEmfIqCGyZleYvN-28" edge="1">
          <mxGeometry relative="1" as="geometry" />
        </mxCell>
        <mxCell id="4VdPuWEmfIqCGyZleYvN-46" style="rounded=0;orthogonalLoop=1;jettySize=auto;html=1;exitX=0.5;exitY=1;exitDx=0;exitDy=0;entryX=0.5;entryY=0;entryDx=0;entryDy=0;" parent="1" source="4VdPuWEmfIqCGyZleYvN-25" target="4VdPuWEmfIqCGyZleYvN-31" edge="1">
          <mxGeometry relative="1" as="geometry" />
        </mxCell>
        <mxCell id="olXgmp2s7FZ5OCbK55xR-5" style="rounded=0;orthogonalLoop=1;jettySize=auto;html=1;exitX=0.5;exitY=1;exitDx=0;exitDy=0;entryX=0.5;entryY=0;entryDx=0;entryDy=0;" edge="1" parent="1" source="4VdPuWEmfIqCGyZleYvN-25" target="4VdPuWEmfIqCGyZleYvN-32">
          <mxGeometry relative="1" as="geometry" />
        </mxCell>
        <mxCell id="4VdPuWEmfIqCGyZleYvN-25" value="term" style="ellipse;whiteSpace=wrap;html=1;" parent="1" vertex="1">
          <mxGeometry x="480" y="720" width="120" height="80" as="geometry" />
        </mxCell>
        <mxCell id="4VdPuWEmfIqCGyZleYvN-48" value="" style="edgeStyle=orthogonalEdgeStyle;rounded=0;orthogonalLoop=1;jettySize=auto;html=1;" parent="1" source="4VdPuWEmfIqCGyZleYvN-28" target="4VdPuWEmfIqCGyZleYvN-33" edge="1">
          <mxGeometry relative="1" as="geometry" />
        </mxCell>
        <mxCell id="4VdPuWEmfIqCGyZleYvN-28" value="term" style="ellipse;whiteSpace=wrap;html=1;" parent="1" vertex="1">
          <mxGeometry x="560" y="855" width="120" height="80" as="geometry" />
        </mxCell>
        <mxCell id="4VdPuWEmfIqCGyZleYvN-29" value="(" style="text;html=1;strokeColor=none;fillColor=none;align=center;verticalAlign=middle;whiteSpace=wrap;rounded=0;" parent="1" vertex="1">
          <mxGeometry x="430" y="855" width="60" height="30" as="geometry" />
        </mxCell>
        <mxCell id="4VdPuWEmfIqCGyZleYvN-47" value="" style="edgeStyle=orthogonalEdgeStyle;rounded=0;orthogonalLoop=1;jettySize=auto;html=1;" parent="1" source="4VdPuWEmfIqCGyZleYvN-31" target="4VdPuWEmfIqCGyZleYvN-36" edge="1">
          <mxGeometry relative="1" as="geometry" />
        </mxCell>
        <mxCell id="4VdPuWEmfIqCGyZleYvN-31" value="factor" style="ellipse;whiteSpace=wrap;html=1;" parent="1" vertex="1">
          <mxGeometry x="400" y="855" width="120" height="80" as="geometry" />
        </mxCell>
        <mxCell id="4VdPuWEmfIqCGyZleYvN-32" value="+" style="text;html=1;strokeColor=none;fillColor=none;align=center;verticalAlign=middle;whiteSpace=wrap;rounded=0;" parent="1" vertex="1">
          <mxGeometry x="510" y="880" width="60" height="30" as="geometry" />
        </mxCell>
        <mxCell id="4VdPuWEmfIqCGyZleYvN-49" value="" style="edgeStyle=orthogonalEdgeStyle;rounded=0;orthogonalLoop=1;jettySize=auto;html=1;" parent="1" source="4VdPuWEmfIqCGyZleYvN-33" target="4VdPuWEmfIqCGyZleYvN-38" edge="1">
          <mxGeometry relative="1" as="geometry" />
        </mxCell>
        <mxCell id="4VdPuWEmfIqCGyZleYvN-33" value="factor" style="ellipse;whiteSpace=wrap;html=1;" parent="1" vertex="1">
          <mxGeometry x="560" y="975" width="120" height="80" as="geometry" />
        </mxCell>
        <mxCell id="4VdPuWEmfIqCGyZleYvN-34" value="(" style="text;html=1;strokeColor=none;fillColor=none;align=center;verticalAlign=middle;whiteSpace=wrap;rounded=0;" parent="1" vertex="1">
          <mxGeometry x="430" y="975" width="60" height="30" as="geometry" />
        </mxCell>
        <mxCell id="4VdPuWEmfIqCGyZleYvN-51" value="" style="edgeStyle=orthogonalEdgeStyle;rounded=0;orthogonalLoop=1;jettySize=auto;html=1;" parent="1" source="4VdPuWEmfIqCGyZleYvN-36" target="4VdPuWEmfIqCGyZleYvN-41" edge="1">
          <mxGeometry relative="1" as="geometry" />
        </mxCell>
        <mxCell id="4VdPuWEmfIqCGyZleYvN-36" value="id" style="ellipse;whiteSpace=wrap;html=1;" parent="1" vertex="1">
          <mxGeometry x="400" y="975" width="120" height="80" as="geometry" />
        </mxCell>
        <mxCell id="4VdPuWEmfIqCGyZleYvN-50" value="" style="edgeStyle=orthogonalEdgeStyle;rounded=0;orthogonalLoop=1;jettySize=auto;html=1;" parent="1" source="4VdPuWEmfIqCGyZleYvN-38" target="4VdPuWEmfIqCGyZleYvN-43" edge="1">
          <mxGeometry relative="1" as="geometry" />
        </mxCell>
        <mxCell id="4VdPuWEmfIqCGyZleYvN-38" value="id" style="ellipse;whiteSpace=wrap;html=1;" parent="1" vertex="1">
          <mxGeometry x="560" y="1095" width="120" height="80" as="geometry" />
        </mxCell>
        <mxCell id="4VdPuWEmfIqCGyZleYvN-39" value="(" style="text;html=1;strokeColor=none;fillColor=none;align=center;verticalAlign=middle;whiteSpace=wrap;rounded=0;" parent="1" vertex="1">
          <mxGeometry x="430" y="1095" width="60" height="30" as="geometry" />
        </mxCell>
        <mxCell id="4VdPuWEmfIqCGyZleYvN-41" value="A" style="ellipse;whiteSpace=wrap;html=1;" parent="1" vertex="1">
          <mxGeometry x="400" y="1095" width="120" height="80" as="geometry" />
        </mxCell>
        <mxCell id="4VdPuWEmfIqCGyZleYvN-43" value="C" style="ellipse;whiteSpace=wrap;html=1;" parent="1" vertex="1">
          <mxGeometry x="560" y="1215" width="120" height="80" as="geometry" />
        </mxCell>
        <mxCell id="4VdPuWEmfIqCGyZleYvN-52" value="" style="edgeStyle=orthogonalEdgeStyle;rounded=0;orthogonalLoop=1;jettySize=auto;html=1;" parent="1" target="4VdPuWEmfIqCGyZleYvN-54" edge="1">
          <mxGeometry relative="1" as="geometry">
            <mxPoint x="780" y="320" as="sourcePoint" />
          </mxGeometry>
        </mxCell>
        <mxCell id="4VdPuWEmfIqCGyZleYvN-53" value="" style="edgeStyle=orthogonalEdgeStyle;rounded=0;orthogonalLoop=1;jettySize=auto;html=1;" parent="1" source="4VdPuWEmfIqCGyZleYvN-54" target="4VdPuWEmfIqCGyZleYvN-56" edge="1">
          <mxGeometry relative="1" as="geometry" />
        </mxCell>
        <mxCell id="4VdPuWEmfIqCGyZleYvN-54" value="factor" style="ellipse;whiteSpace=wrap;html=1;" parent="1" vertex="1">
          <mxGeometry x="720" y="360" width="120" height="80" as="geometry" />
        </mxCell>
        <mxCell id="4VdPuWEmfIqCGyZleYvN-55" value="" style="rounded=0;orthogonalLoop=1;jettySize=auto;html=1;" parent="1" source="4VdPuWEmfIqCGyZleYvN-56" target="4VdPuWEmfIqCGyZleYvN-57" edge="1">
          <mxGeometry relative="1" as="geometry" />
        </mxCell>
        <mxCell id="4VdPuWEmfIqCGyZleYvN-56" value="id" style="ellipse;whiteSpace=wrap;html=1;" parent="1" vertex="1">
          <mxGeometry x="720" y="480" width="120" height="80" as="geometry" />
        </mxCell>
        <mxCell id="4VdPuWEmfIqCGyZleYvN-57" value="B" style="ellipse;whiteSpace=wrap;html=1;" parent="1" vertex="1">
          <mxGeometry x="720" y="600" width="120" height="80" as="geometry" />
        </mxCell>
      </root>
    </mxGraphModel>
  </diagram>
</mxfile>
